<?xml version="1.0" encoding="UTF-8"?>
<svg version="1.1" xmlns="http://www.w3.org/2000/svg" width="65" height="95">
<path d="M0 0 C4.95 0 9.9 0 15 0 C15 1.65 15 3.3 15 5 C16.65 5 18.3 5 20 5 C20 6.65 20 8.3 20 10 C21.65 10 23.3 10 25 10 C25 11.65 25 13.3 25 15 C26.65 15 28.3 15 30 15 C30 16.65 30 18.3 30 20 C31.65 20 33.3 20 35 20 C35 21.65 35 23.3 35 25 C36.65 25 38.3 25 40 25 C40 26.65 40 28.3 40 30 C41.65 30 43.3 30 45 30 C45 31.65 45 33.3 45 35 C46.65 35 48.3 35 50 35 C50 36.65 50 38.3 50 40 C51.65 40 53.3 40 55 40 C55 41.65 55 43.3 55 45 C56.65 45 58.3 45 60 45 C60 46.65 60 48.3 60 50 C61.65 50 63.3 50 65 50 C65 56.6 65 63.2 65 70 C60.05 70 55.1 70 50 70 C50 71.65 50 73.3 50 75 C51.65 75 53.3 75 55 75 C55 81.6 55 88.2 55 95 C45.1 95 35.2 95 25 95 C25 91.7 25 88.4 25 85 C21.7 85 18.4 85 15 85 C15 86.65 15 88.3 15 90 C10.05 90 5.1 90 0 90 C0 60.3 0 30.6 0 0 Z " fill="#FFF200" transform="translate(0,0)"/>
<path d="M0 0 C4.95 0 9.9 0 15 0 C15 1.65 15 3.3 15 5 C16.65 5 18.3 5 20 5 C20 6.65 20 8.3 20 10 C21.65 10 23.3 10 25 10 C25 11.65 25 13.3 25 15 C26.65 15 28.3 15 30 15 C30 16.65 30 18.3 30 20 C31.65 20 33.3 20 35 20 C35 21.65 35 23.3 35 25 C36.65 25 38.3 25 40 25 C40 26.65 40 28.3 40 30 C41.65 30 43.3 30 45 30 C45 31.65 45 33.3 45 35 C46.65 35 48.3 35 50 35 C50 36.65 50 38.3 50 40 C51.65 40 53.3 40 55 40 C55 41.65 55 43.3 55 45 C56.65 45 58.3 45 60 45 C60 46.65 60 48.3 60 50 C61.65 50 63.3 50 65 50 C65 56.6 65 63.2 65 70 C60.05 70 55.1 70 50 70 C50 71.65 50 73.3 50 75 C51.65 75 53.3 75 55 75 C55 81.6 55 88.2 55 95 C45.1 95 35.2 95 25 95 C25 91.7 25 88.4 25 85 C21.7 85 18.4 85 15 85 C15 86.65 15 88.3 15 90 C10.05 90 5.1 90 0 90 C0 60.3 0 30.6 0 0 Z M5 5 C5 31.4 5 57.8 5 85 C6.65 85 8.3 85 10 85 C10 83.35 10 81.7 10 80 C11.65 80 13.3 80 15 80 C15 78.35 15 76.7 15 75 C16.65 75 18.3 75 20 75 C20 73.35 20 71.7 20 70 C21.65 70 23.3 70 25 70 C25 73.3 25 76.6 25 80 C26.65 80 28.3 80 30 80 C30 83.3 30 86.6 30 90 C36.6 90 43.2 90 50 90 C50 86.7 50 83.4 50 80 C48.35 80 46.7 80 45 80 C45 76.7 45 73.4 45 70 C43.35 70 41.7 70 40 70 C40 68.35 40 66.7 40 65 C46.6 65 53.2 65 60 65 C60 61.7 60 58.4 60 55 C58.35 55 56.7 55 55 55 C55 53.35 55 51.7 55 50 C53.35 50 51.7 50 50 50 C50 48.35 50 46.7 50 45 C48.35 45 46.7 45 45 45 C45 43.35 45 41.7 45 40 C43.35 40 41.7 40 40 40 C40 38.35 40 36.7 40 35 C38.35 35 36.7 35 35 35 C35 33.35 35 31.7 35 30 C33.35 30 31.7 30 30 30 C30 28.35 30 26.7 30 25 C28.35 25 26.7 25 25 25 C25 23.35 25 21.7 25 20 C23.35 20 21.7 20 20 20 C20 18.35 20 16.7 20 15 C18.35 15 16.7 15 15 15 C15 13.35 15 11.7 15 10 C13.35 10 11.7 10 10 10 C10 8.35 10 6.7 10 5 C8.35 5 6.7 5 5 5 Z " fill="#FFFFFF" transform="translate(0,0)"/>
<path d="M0 0 C1.65 0 3.3 0 5 0 C5 1.65 5 3.3 5 5 C6.65 5 8.3 5 10 5 C10 6.65 10 8.3 10 10 C8.35 10 6.7 10 5 10 C5 29.8 5 49.6 5 70 C6.65 70 8.3 70 10 70 C10 71.65 10 73.3 10 75 C8.35 75 6.7 75 5 75 C5 76.65 5 78.3 5 80 C3.35 80 1.7 80 0 80 C0 53.6 0 27.2 0 0 Z " fill="#000000" transform="translate(5,5)"/>
<path d="M0 0 C1.65 0 3.3 0 5 0 C5 3.3 5 6.6 5 10 C-1.6 10 -8.2 10 -15 10 C-15 11.65 -15 13.3 -15 15 C-16.65 15 -18.3 15 -20 15 C-20 11.7 -20 8.4 -20 5 C-13.4 5 -6.8 5 0 5 C0 3.35 0 1.7 0 0 Z " fill="#000000" transform="translate(55,55)"/>
<path d="M0 0 C1.65 0 3.3 0 5 0 C5 1.65 5 3.3 5 5 C8.3 5 11.6 5 15 5 C15 3.35 15 1.7 15 0 C16.65 0 18.3 0 20 0 C20 3.3 20 6.6 20 10 C13.4 10 6.8 10 0 10 C0 6.7 0 3.4 0 0 Z " fill="#000000" transform="translate(30,80)"/>
<path d="M0 0 C1.65 0 3.3 0 5 0 C5 3.3 5 6.6 5 10 C3.35 10 1.7 10 0 10 C0 6.7 0 3.4 0 0 Z " fill="#000000" transform="translate(40,70)"/>
<path d="M0 0 C1.65 0 3.3 0 5 0 C5 3.3 5 6.6 5 10 C3.35 10 1.7 10 0 10 C0 6.7 0 3.4 0 0 Z " fill="#000000" transform="translate(25,70)"/>
<path d="M0 0 C1.65 0 3.3 0 5 0 C5 1.65 5 3.3 5 5 C3.35 5 1.7 5 0 5 C0 3.35 0 1.7 0 0 Z " fill="#000000" transform="translate(15,70)"/>
<path d="M0 0 C1.65 0 3.3 0 5 0 C5 1.65 5 3.3 5 5 C3.35 5 1.7 5 0 5 C0 3.35 0 1.7 0 0 Z " fill="#000000" transform="translate(20,65)"/>
<path d="M0 0 C1.65 0 3.3 0 5 0 C5 1.65 5 3.3 5 5 C3.35 5 1.7 5 0 5 C0 3.35 0 1.7 0 0 Z " fill="#000000" transform="translate(50,50)"/>
<path d="M0 0 C1.65 0 3.3 0 5 0 C5 1.65 5 3.3 5 5 C3.35 5 1.7 5 0 5 C0 3.35 0 1.7 0 0 Z " fill="#000000" transform="translate(45,45)"/>
<path d="M0 0 C1.65 0 3.3 0 5 0 C5 1.65 5 3.3 5 5 C3.35 5 1.7 5 0 5 C0 3.35 0 1.7 0 0 Z " fill="#000000" transform="translate(40,40)"/>
<path d="M0 0 C1.65 0 3.3 0 5 0 C5 1.65 5 3.3 5 5 C3.35 5 1.7 5 0 5 C0 3.35 0 1.7 0 0 Z " fill="#000000" transform="translate(35,35)"/>
<path d="M0 0 C1.65 0 3.3 0 5 0 C5 1.65 5 3.3 5 5 C3.35 5 1.7 5 0 5 C0 3.35 0 1.7 0 0 Z " fill="#000000" transform="translate(30,30)"/>
<path d="M0 0 C1.65 0 3.3 0 5 0 C5 1.65 5 3.3 5 5 C3.35 5 1.7 5 0 5 C0 3.35 0 1.7 0 0 Z " fill="#000000" transform="translate(25,25)"/>
<path d="M0 0 C1.65 0 3.3 0 5 0 C5 1.65 5 3.3 5 5 C3.35 5 1.7 5 0 5 C0 3.35 0 1.7 0 0 Z " fill="#000000" transform="translate(20,20)"/>
<path d="M0 0 C1.65 0 3.3 0 5 0 C5 1.65 5 3.3 5 5 C3.35 5 1.7 5 0 5 C0 3.35 0 1.7 0 0 Z " fill="#000000" transform="translate(15,15)"/>
</svg>
